<svg width="24" height="24" viewBox="0 0 24 24" fill="none" xmlns="http://www.w3.org/2000/svg">
    <defs>
        <linearGradient id="navyFederalGradient" x1="0%" y1="0%" x2="100%" y2="100%">
            <stop offset="0%" stop-color="#041E42" />
            <stop offset="70%" stop-color="#112F5F" />
            <stop offset="100%" stop-color="#205493" />
        </linearGradient>

        <linearGradient id="goldEdge" x1="0%" y1="0%" x2="100%" y2="100%">
            <stop offset="0%" stop-color="#D6AF36" />
            <stop offset="100%" stop-color="#B38728" />
        </linearGradient>
    </defs>

    <!-- Main paper airplane shape with federal navy gradient -->
    <path
        d="M1.7899 0.624791C0.827158 0.165808 -0.231189 1.04584 0.0444367 2.07616L2.05964 9.60921C2.16316 9.99621 2.48766 10.2841 2.88425 10.3407L12.7676 11.7526C13.0538 11.7935 13.0538 12.2067 12.7676 12.2476L2.88529 13.6594C2.4887 13.716 2.16421 14.0039 2.06068 14.3909L0.0444365 21.9278C-0.231191 22.9582 0.827162 23.8382 1.7899 23.3792L23.2875 13.1303C24.2369 12.6777 24.2369 11.3263 23.2875 10.8737L1.7899 0.624791Z"
        fill="url(#navyFederalGradient)" />

    <!-- Gold trim line to match the federal style -->
    <path
        d="M1.7899 0.624791C0.827158 0.165808 -0.231189 1.04584 0.0444367 2.07616L2.05964 9.60921C2.16316 9.99621 2.48766 10.2841 2.88425 10.3407L12.7676 11.7526C13.0538 11.7935 13.0538 12.2067 12.7676 12.2476L2.88529 13.6594C2.4887 13.716 2.16421 14.0039 2.06068 14.3909L0.0444365 21.9278C-0.231191 22.9582 0.827162 23.8382 1.7899 23.3792L23.2875 13.1303C24.2369 12.6777 24.2369 11.3263 23.2875 10.8737L1.7899 0.624791Z"
        fill="none" stroke="url(#goldEdge)" stroke-width="0.5" />

    <!-- Subtle star accent to represent federal government -->
    <path d="M12 8L12.8 10.5H15.5L13.35 12L14.2 14.5L12 13L9.8 14.5L10.65 12L8.5 10.5H11.2L12 8Z"
        fill="url(#goldEdge)" opacity="0.7" />
</svg>